<svg xmlns="http://www.w3.org/2000/svg" viewBox="0 0 20 20" width="20" height="20" fill="black"><path d="M1 0a1 1 0 0 0-1 1 1 1 0 0 0 1 1 1 1 0 0 0-1 1 1 1 0 0 0 1 1 1 1 0 0 0-1 1 1 1 0 0 0 1 1 1 1 0 0 0-1 1 1 1 0 0 0 1 1 1 1 0 0 0-1 1 1 1 0 0 0 1 1 1 1 0 0 0-1 1 1 1 0 0 0 1 1 1 1 0 0 0-1 1 1 1 0 0 0 1 1 1 1 0 0 0-1 1 1 1 0 0 0 1 1 1 1 0 0 0-1 1 1 1 0 0 0 1 1 1 1 0 0 0-1 1 1 1 0 0 0 1 1 1 1 0 0 0 1-1 1 1 0 0 0 1 1 1 1 0 0 0 1-1 1 1 0 0 0 1 1 1 1 0 0 0 1-1 1 1 0 0 0 1 1 1 1 0 0 0 1-1 1 1 0 0 0 1 1 1 1 0 0 0 1-1 1 1 0 0 0 1 1 1 1 0 0 0 1-1 1 1 0 0 0 1 1 1 1 0 0 0 1-1 1 1 0 0 0 1 1 1 1 0 0 0 1-1 1 1 0 0 0 1 1 1 1 0 0 0 1-1 1 1 0 0 0 1 1 1 1 0 0 0 1-1 1 1 0 0 0-1-1 1 1 0 0 0 1-1 1 1 0 0 0-1-1 1 1 0 0 0 1-1 1 1 0 0 0-1-1 1 1 0 0 0 1-1 1 1 0 0 0-1-1 1 1 0 0 0 1-1 1 1 0 0 0-1-1 1 1 0 0 0 1-1 1 1 0 0 0-1-1 1 1 0 0 0 1-1 1 1 0 0 0-1-1 1 1 0 0 0 1-1 1 1 0 0 0-1-1 1 1 0 0 0 1-1 1 1 0 0 0-1-1 1 1 0 0 0 1-1 1 1 0 0 0-1-1 1 1 0 0 0-1 1 1 1 0 0 0-1-1 1 1 0 0 0-1 1 1 1 0 0 0-1-1 1 1 0 0 0-1 1 1 1 0 0 0-1-1 1 1 0 0 0-1 1 1 1 0 0 0-1-1 1 1 0 0 0-1 1 1 1 0 0 0-1-1 1 1 0 0 0-1 1 1 1 0 0 0-1-1 1 1 0 0 0-1 1 1 1 0 0 0-1-1 1 1 0 0 0-1 1 1 1 0 0 0-1-1 1 1 0 0 0-1 1 1 1 0 0 0-1-1"/></svg>
